<svg width="62" height="60" viewBox="0 0 62 60" fill="none" xmlns="http://www.w3.org/2000/svg">
<g clip-path="url(#clip0_403560_23)">
<path d="M32.3702 27.4617L32.156 27.567C31.2815 27.9849 30.2554 27.9849 29.381 27.567L29.1625 27.4599C28.6601 27.1962 28.0317 27.3757 27.7587 27.8609C27.4857 28.3461 27.6715 28.9536 28.1739 29.2172C28.1928 29.2269 28.2118 29.236 28.2307 29.2447L28.4535 29.3537C29.9132 30.0536 31.628 30.0536 33.0877 29.3537L33.3062 29.247C33.8243 29.0135 34.0489 28.4184 33.8072 27.9181C33.5655 27.4173 32.9494 27.2008 32.4313 27.4342C32.4119 27.4429 32.3929 27.4521 32.3745 27.4617H32.3702Z" fill="#86C9F3"/>
<path d="M30.0336 25.5899C30.4445 25.9735 31.1 25.9626 31.4972 25.5652C31.8848 25.178 31.8848 24.5632 31.4972 24.1759L30.99 23.6856L31.6919 22.3297C31.9474 21.8354 31.7398 21.2348 31.2279 20.9876C30.7166 20.7408 30.0943 20.9413 29.8388 21.4357L28.8032 23.4357C28.6046 23.8207 28.6828 24.2858 28.998 24.5897L30.0336 25.5899Z" fill="#86C9F3"/>
<path d="M46.6374 37.9747L47.1645 36.4467C47.8062 34.5891 47.7195 32.569 46.9209 30.7691C46.49 29.8586 46.1303 28.9179 45.8445 27.9561C45.6284 27.1578 45.5194 26.3365 45.5194 25.5121V13.8826H48.6252C49.1972 13.8826 49.6608 13.4349 49.6608 12.8829C49.6608 12.3303 49.1972 11.8826 48.6252 11.8826H44.4838V8.88291C44.4781 3.91434 40.3098 -0.111694 35.1655 -0.117188H26.8828C21.7391 -0.111694 17.5702 3.91434 17.5645 8.88291V11.8826H13.4232C12.8516 11.8826 12.3881 12.3303 12.3881 12.8829C12.3881 13.4349 12.8516 13.8826 13.4232 13.8826H16.5294V25.5116C16.5289 26.3365 16.4199 27.1578 16.2043 27.9556C15.918 28.9179 15.5583 29.8581 15.1275 30.7686C14.3289 32.569 14.2421 34.5891 14.8839 36.4467L15.4109 37.9747C11.8861 38.5066 9.28606 41.4368 9.2818 44.8828V58.8826C9.2818 59.4352 9.74532 59.8829 10.3169 59.8829H51.7314C52.303 59.8829 52.7665 59.4352 52.7665 58.8826V44.8828C52.7627 41.4368 50.1627 38.5066 46.6374 37.9747ZM45.018 31.556C45.6166 32.9059 45.6815 34.4216 45.2004 35.815L44.4838 37.8827H36.2011V32.9196C39.0315 31.5669 40.9539 28.9147 41.3013 25.8829H41.378C42.1444 25.8801 42.8824 25.6023 43.4487 25.1029V25.5116C43.4487 26.5073 43.581 27.4988 43.8421 28.4619C44.1525 29.5203 44.5459 30.5548 45.018 31.556ZM32.0597 31.8828H29.9891C26.1378 31.8778 22.9628 28.9646 22.7609 25.2498C24.442 23.4668 26.3212 21.8683 28.3644 20.4826C29.3161 19.8193 30.2113 19.0837 31.0417 18.2826L32.2635 17.103L39.304 20.5028V24.8827C39.3088 28.7444 36.0712 31.8782 32.073 31.8828C32.0673 31.8828 32.0621 31.8828 32.0564 31.8828H32.0597ZM34.1304 33.6521V38.6179L31.0242 43.8671L27.9184 38.6179V33.6507C28.5971 33.8031 29.2919 33.8809 29.9891 33.8828H32.0597C32.7565 33.8809 33.4513 33.8031 34.1304 33.6521ZM41.378 23.8829V20.8827C41.9496 20.8827 42.4131 21.3304 42.4131 21.8829V22.8827C42.4131 23.4352 41.9496 23.8829 41.378 23.8829ZM26.8828 1.88278H35.1655C38.7642 1.88965 41.8136 4.44306 42.3302 7.8827H19.7181C20.2347 4.44306 23.2841 1.88965 26.8828 1.88278ZM19.6352 9.88267H42.4131V11.8826H19.6352V9.88267ZM18.6001 13.8826H43.4487V19.6628C42.8824 19.1634 42.1444 18.8855 41.378 18.8828H40.5865L32.5223 14.9877C32.1237 14.7958 31.6427 14.8714 31.3275 15.1758L29.5777 16.8659C28.826 17.591 28.0155 18.2575 27.1539 18.858C25.597 19.932 24.1221 21.1134 22.7415 22.3929V19.883C22.7415 19.3305 22.2779 18.8828 21.7059 18.8828H20.6708C19.9039 18.8855 19.166 19.1634 18.6001 19.6628V13.8826ZM20.6708 20.8827V23.8829C20.0987 23.8829 19.6352 23.4352 19.6352 22.8827V21.8829C19.6352 21.3304 20.0987 20.8827 20.6708 20.8827ZM17.0304 31.556C17.5024 30.5548 17.8958 29.5203 18.2067 28.4619C18.4679 27.4988 18.6001 26.5073 18.6001 25.5116V25.1029C19.166 25.6023 19.9039 25.8801 20.6708 25.8829H20.7319C21.0888 28.9188 23.0149 31.5729 25.8477 32.9329V37.8827H17.5645L16.8503 35.815C16.3687 34.4216 16.4327 32.9064 17.0304 31.556ZM11.3525 57.8829V51.9136L15.9796 52.0537C15.3317 53.9493 15.3498 55.9983 16.0313 57.8829H11.3525ZM22.7765 43.1411C22.8585 43.4372 23.077 43.6808 23.369 43.8021L24.8121 44.4017V57.8829H18.2716C17.3242 55.9493 17.3399 53.704 18.3143 51.7827C18.4868 51.606 18.5882 51.3758 18.6001 51.1327V51.124C18.6295 51.0462 18.6489 50.9652 18.6579 50.8828L18.6456 46.8769C18.6423 46.3271 18.1797 45.8831 17.61 45.8831C17.0384 45.8831 16.5749 46.3308 16.5749 46.8828V46.8888L16.5853 50.0721L11.3525 49.9137V44.8828C11.3558 42.123 13.6715 39.8863 16.5294 39.8827H24.8121L22.9486 42.2827C22.758 42.5281 22.6945 42.8444 22.7765 43.1411ZM26.7657 40.6998L28.5933 43.7888L25.3951 42.4649L26.7657 40.6998ZM35.1655 57.8829H26.8828V51.883H35.1655V57.8829ZM35.1655 49.883H26.8828V45.2568L30.6161 46.8018C30.6308 46.8077 30.6455 46.8018 30.6597 46.8109C30.6867 46.821 30.7118 46.8347 30.7398 46.843C30.8322 46.8691 30.928 46.8824 31.0242 46.8828C31.1199 46.8824 31.2152 46.8686 31.3071 46.843C31.3351 46.8347 31.3597 46.821 31.3867 46.8109C31.401 46.805 31.4157 46.8109 31.4303 46.8018L35.1655 45.2568V49.883ZM33.4551 43.7888L35.2826 40.6998L36.6533 42.4649L33.4551 43.7888ZM50.6959 57.8829H46.0431C46.7152 55.9356 46.7152 53.8303 46.0431 51.883H50.6959V57.8829ZM50.6959 49.883H45.5194V46.8828C45.5194 46.3308 45.0559 45.8831 44.4838 45.8831C43.9122 45.8831 43.4487 46.3308 43.4487 46.8828V50.8828C43.4497 51.0311 43.4847 51.1776 43.552 51.3108L43.7592 51.7337C44.6976 53.6788 44.7194 55.9214 43.8179 57.8829H37.2362V44.399L38.6799 43.7989C39.205 43.58 39.4472 42.9918 39.2206 42.4846C39.1889 42.4132 39.1481 42.3455 39.1002 42.2827L37.2362 39.8827H45.5194C48.3768 39.8863 50.6925 42.123 50.6959 44.8828V49.883Z" fill="#86C9F3"/>
<path d="M36.2011 21.883V20.8828C36.2011 20.3307 35.7376 19.883 35.1655 19.883C34.594 19.883 34.1304 20.3307 34.1304 20.8828V21.883C34.1304 22.435 34.594 22.8827 35.1655 22.8827C35.7376 22.8827 36.2011 22.435 36.2011 21.883Z" fill="#86C9F3"/>
</g>
<defs>
<clipPath id="clip0_403560_23">
<rect width="62" height="60" fill="white"/>
</clipPath>
</defs>
</svg>
