<svg width="66" height="64" viewBox="0 0 66 64" fill="none" xmlns="http://www.w3.org/2000/svg">
<g clip-path="url(#clip0_403560_10)">
<path d="M64.4468 34.0688C64.3578 33.7759 62.129 26.7578 49.5144 14.5261C36.9008 2.29415 29.6631 0.132844 29.3613 0.0465653C28.7855 -0.116371 28.1816 0.159534 27.9438 0.68993L1.60346 59.4772C1.40951 59.9089 1.50809 60.4117 1.85182 60.745C2.19428 61.0771 2.71277 61.1745 3.15924 60.9858L15.6317 55.7316V56.5434C15.6317 58.7581 17.4886 60.5597 19.7706 60.5597C22.0526 60.5597 23.9095 58.7578 23.9095 56.5434V52.2438L28.6399 50.251V59.9837C28.6399 62.1984 30.4969 64 32.7788 64C35.0608 64 36.9178 62.1981 36.9178 59.9837V46.7632L63.7836 35.4437C64.3306 35.2134 64.6148 34.6237 64.4468 34.0688ZM35.2637 44.9595C34.832 45.1413 34.5523 45.5541 34.5523 46.0109V59.9834C34.5523 60.9337 33.7566 61.7062 32.7785 61.7062C31.8004 61.7062 31.0048 60.9334 31.0048 59.9834V48.5022C31.0048 48.1158 30.8038 47.7551 30.4706 47.5432C30.2748 47.4187 30.0491 47.3557 29.8222 47.3557C29.6622 47.3557 29.5018 47.3871 29.3511 47.451L22.2558 50.4403C21.8241 50.6222 21.5444 51.035 21.5444 51.4918V56.5434C21.5444 57.4937 20.7487 58.2662 19.7706 58.2662C18.7925 58.2662 17.9969 57.4934 17.9969 56.5434V53.983C17.9969 53.5966 17.7959 53.236 17.4627 53.024C17.1289 52.8117 16.708 52.7776 16.3432 52.9315L4.9685 57.724L26.018 10.7429C27.0816 10.6191 30.0421 10.5915 32.76 13.4948C34.3061 15.1472 35.1021 16.5919 35.804 17.8668C36.8057 19.687 37.6715 21.259 40.1151 21.7757L40.7059 21.8989C43.6846 22.5159 46.038 23.0038 48.1836 26.5251C48.9978 27.8605 49.7404 29.3465 50.4586 30.784C51.7186 33.3044 52.8494 35.5502 54.2643 36.9539L35.2637 44.9595ZM56.6954 35.9297C55.2763 35.1582 53.9091 32.4292 52.5869 29.7838C51.8479 28.3046 51.0833 26.7749 50.2195 25.3581C47.5464 20.971 44.3199 20.3025 41.1994 19.6557L40.6192 19.5346C39.2964 19.2547 38.8528 18.5347 37.8904 16.7858C37.1616 15.4628 36.2553 13.816 34.5107 11.9527C31.8523 9.11387 28.9459 8.47982 27.0582 8.42054L29.6596 2.61475C31.9515 3.5936 38.2581 6.85387 47.8421 16.1477C57.3679 25.3848 60.7678 31.5475 61.7929 33.7814L56.6954 35.9297Z" fill="#86BAFD"/>
<path d="M27.457 23.8638C24.197 23.8638 21.544 26.436 21.544 29.5976C21.544 32.7591 24.1966 35.3314 27.457 35.3314C30.7174 35.3314 33.37 32.7591 33.37 29.5976C33.37 26.436 30.7171 23.8638 27.457 23.8638ZM27.457 33.0375C25.5008 33.0375 23.9092 31.4944 23.9092 29.5973C23.9092 27.7001 25.5005 26.157 27.457 26.157C29.4135 26.157 31.0048 27.7001 31.0048 29.5973C31.0048 31.4944 29.4132 33.0375 27.457 33.0375Z" fill="#86BAFD"/>
<path d="M19.1788 38.7713C16.5704 38.7713 14.4485 40.8289 14.4485 43.3583C14.4485 45.8877 16.5704 47.9454 19.1788 47.9454C21.7873 47.9454 23.9092 45.8877 23.9092 43.3583C23.9092 40.8289 21.7873 38.7713 19.1788 38.7713ZM19.1788 45.6515C17.8746 45.6515 16.8136 44.623 16.8136 43.358C16.8136 42.093 17.8743 41.0645 19.1788 41.0645C20.483 41.0645 21.544 42.093 21.544 43.358C21.544 44.623 20.4834 45.6515 19.1788 45.6515Z" fill="#86BAFD"/>
<path d="M42.239 26.1573C38.6525 26.1573 35.7348 28.9865 35.7348 32.4643C35.7348 35.9421 38.6525 38.7713 42.239 38.7713C45.8255 38.7713 48.7431 35.9421 48.7431 32.4643C48.7431 28.9865 45.8255 26.1573 42.239 26.1573ZM42.239 36.4778C39.957 36.4778 38.1 34.6771 38.1 32.4643C38.1 30.2515 39.957 28.4508 42.239 28.4508C44.5209 28.4508 46.3779 30.2515 46.3779 32.4643C46.3779 34.6771 44.5209 36.4778 42.239 36.4778Z" fill="#86BAFD"/>
</g>
<defs>
<clipPath id="clip0_403560_10">
<rect width="66" height="64" fill="white"/>
</clipPath>
</defs>
</svg>
