<svg width="66" height="61" viewBox="0 0 66 61" fill="none" xmlns="http://www.w3.org/2000/svg">
<g clip-path="url(#clip0_403564_35)">
<path d="M4.86309 8.82892H2.77893V10.7552H4.86309V8.82892Z" fill="#77B8FD"/>
<path d="M11.8105 21.6711H9.72638V23.5973H11.8105V21.6711Z" fill="#77B8FD"/>
<path d="M65.2946 22.1741L64.4885 16.2132H63.2212V12.0394H61.137V16.2132H59.8697L59.0636 22.1741L58.3582 26.0861V32.7006L56.274 30.6233V24.8816H54.1899V28.5462L53.2171 27.5768L51.689 28.8867L58.3583 35.5335V58.5922H52.4531V60.5185H66V26.0861L65.2946 22.1741ZM63.916 58.5921H63.9159H60.4422V26.2455L61.1228 22.4715L61.7096 18.1394H62.6487L63.2294 22.4325L63.9161 26.2454V58.5921H63.916Z" fill="#77B8FD"/>
<path d="M63.2211 8.82892H61.1369V10.7552H63.2211V8.82892Z" fill="#77B8FD"/>
<path d="M18.7578 0.481567H16.6736V2.40783H18.7578V0.481567Z" fill="#77B8FD"/>
<path d="M22.9264 8.77241V3.69214H20.8422V7.86587H18.7581V3.69214H16.6739V8.77241L15.2844 19.6883V60.5184H24.316V19.6883L22.9264 8.77241ZM22.2316 58.592H20.7031V30.0184H18.619V58.5921H17.3685V19.8011L18.6424 9.79214H20.9575L22.2316 19.8011V58.592Z" fill="#77B8FD"/>
<path d="M22.9263 0.481567H20.8421V2.40783H22.9263V0.481567Z" fill="#77B8FD"/>
<path d="M29.8736 5.61841H27.7895V7.54467H29.8736V5.61841Z" fill="#77B8FD"/>
<path d="M38.2105 5.61841H36.1263V7.54467H38.2105V5.61841Z" fill="#77B8FD"/>
<path d="M34.0421 3.04999H31.9579V4.97625H34.0421V3.04999Z" fill="#77B8FD"/>
<path d="M38.2105 32.908V26.9436C38.2105 23.7215 36.4788 20.7309 33.578 18.9434L33 18.5872L32.422 18.9434C29.5212 20.7307 27.7895 23.7214 27.7895 26.9436V32.908H26.0526V34.8342H39.9473V32.908H38.2105ZM36.1264 32.908H29.8738V26.9436C29.8738 24.589 31.0305 22.3887 33.0001 20.9363C34.9697 22.3887 36.1265 24.5887 36.1265 26.9436V32.908H36.1264Z" fill="#77B8FD"/>
<path d="M33 39.1688L25.5165 43.3188L26.5889 44.9706L33 41.4155L39.4112 44.9706L40.4835 43.3188L33 39.1688Z" fill="#77B8FD"/>
<path d="M33 44.4658C29.3609 44.4658 26.4 47.2024 26.4 50.5658V60.5185H39.6V50.5658C39.6 47.2024 36.6392 44.4658 33 44.4658ZM37.5159 58.5921H28.4843V50.5658C28.4843 48.2645 30.5102 46.3921 33.0002 46.3921C35.4901 46.3921 37.516 48.2645 37.516 50.5658L37.5159 58.5921Z" fill="#77B8FD"/>
<path d="M38.2105 13.104V8.82892H36.1264V11.094L34.0421 9.08399V6.90265H31.9579V9.08399L29.8736 11.094V8.82892H27.7895V13.1042L24.7708 16.0155L26.2755 17.3484L33 10.8631L39.5372 17.1677L41.0419 15.8349L38.2105 13.104Z" fill="#77B8FD"/>
<path d="M54.8841 49.2816H52.8V51.2079H54.8841V49.2816Z" fill="#77B8FD"/>
<path d="M54.8841 37.7238H52.8V39.65H54.8841V37.7238Z" fill="#77B8FD"/>
<path d="M54.8841 53.1343H52.8V55.0605H54.8841V53.1343Z" fill="#77B8FD"/>
<path d="M54.8841 41.5763H52.8V43.5026H54.8841V41.5763Z" fill="#77B8FD"/>
<path d="M54.8841 45.429H52.8V47.3552H54.8841V45.429Z" fill="#77B8FD"/>
<path d="M13.2 45.429H11.1158V47.3552H13.2V45.429Z" fill="#77B8FD"/>
<path d="M13.2 53.1343H11.1158V55.0605H13.2V53.1343Z" fill="#77B8FD"/>
<path d="M13.2 41.5763H11.1158V43.5026H13.2V41.5763Z" fill="#77B8FD"/>
<path d="M13.2 37.7238H11.1158V39.65H13.2V37.7238Z" fill="#77B8FD"/>
<path d="M13.2 49.2816H11.1158V51.2079H13.2V49.2816Z" fill="#77B8FD"/>
<path d="M7.64208 35.5268L11.78 31.3027H11.8105V31.2715L14.1549 28.8782L12.6097 27.5853L11.8105 28.4012V24.8816H9.72636V30.5289L7.64221 32.6566V26.0861L6.93683 22.1741L6.13065 16.2132H4.86338V12.0394H2.77896V16.2132H1.51168L0.705504 22.1741L0 26.0861V60.5185H13.3824V58.5922H7.64208V35.5268ZM5.55792 34.7844V58.5922H2.08416V26.2455L2.76465 22.4715L3.35156 18.1395H4.29064L4.87137 22.4327L5.55792 26.2456V34.7844Z" fill="#77B8FD"/>
<path d="M45.1578 0.481567H43.0736V2.40783H45.1578V0.481567Z" fill="#77B8FD"/>
<path d="M49.3263 8.77241V3.69214H47.2422V7.86587H45.158V3.69214H43.0739V8.77241L41.6844 19.6883V60.5184H50.7159V19.6883L49.3263 8.77241ZM48.6315 58.592H47.1031V30.0184H45.0189V58.5921H43.7684V19.8011L45.0424 9.79214H47.3574L48.6315 19.8011V58.592Z" fill="#77B8FD"/>
<path d="M49.3262 0.481567H47.2421V2.40783H49.3262V0.481567Z" fill="#77B8FD"/>
<path d="M56.2736 21.6711H54.1895V23.5973H56.2736V21.6711Z" fill="#77B8FD"/>
</g>
<defs>
<clipPath id="clip0_403564_35">
<rect width="66" height="61" fill="white"/>
</clipPath>
</defs>
</svg>
